<svg data-v-0dd9719b="" version="1.0" xmlns="http://www.w3.org/2000/svg" xmlns:xlink="http://www.w3.org/1999/xlink" width="100%" height="100%" viewBox="0 0 224.000000 58" preserveAspectRatio="xMidYMid meet" color-interpolation-filters="sRGB" style="margin: auto;">
    <rect data-v-0dd9719b="" x="0" y="0" width="100%" height="100%" fill="#ffffff" fill-opacity="0" class="background"></rect>
    <rect data-v-0dd9719b="" x="0" y="0" width="100%" height="100%" fill="url(#watermark)" fill-opacity="1" class="watermarklayer"></rect>
    <g data-v-0dd9719b="" fill="#333" class="iconblsvg-g iconsvg" transform="translate(0,0)">
        <g class="tp-name" transform="translate(0,0)">
            <g data-gra="path-name" transform="translate(0, 3.2832782553741495)">
                <g transform="scale(1)">
                    <path d="M8.35-11.26L8.35-11.26Q8.79-11.15 9.8-10.75 10.82-10.35 11.89-9.64 12.96-8.93 13.76-7.88 14.56-6.83 14.56-5.37L14.56-5.37Q14.56-4.1 14.14-3.05 13.73-2 12.93-1.2 12.13-0.4 10.97 0.04 9.8 0.47 8.35 0.47L8.35 0.47Q6.14 0.47 4.23-0.33 2.32-1.13 1.16-2.29L1.16-2.29 4.18-5.3Q5.12-4.18 6.19-3.85 7.26-3.52 7.99-3.52L7.99-3.52Q9.11-3.52 9.66-3.96 10.2-4.39 10.2-5.01L10.2-5.01Q10.2-5.45 9.84-5.77 9.48-6.1 8.99-6.32 8.5-6.54 7.99-6.66 7.48-6.79 7.15-6.9L7.15-6.9Q6.72-7.04 5.68-7.41 4.65-7.77 3.58-8.46 2.51-9.15 1.71-10.2 0.91-11.26 0.91-12.75L0.91-12.75Q0.91-14.27 1.43-15.38 1.96-16.49 2.83-17.21 3.7-17.94 4.83-18.28 5.96-18.63 7.15-18.63L7.15-18.63Q9.01-18.63 10.29-18.19 11.58-17.76 12.42-17.25L12.42-17.25Q13.36-16.63 14.02-15.87L14.02-15.87 10.97-12.82Q10.24-13.76 9.37-14.2 8.5-14.63 7.52-14.63L7.52-14.63Q6.75-14.63 6.01-14.27 5.27-13.91 5.27-13.11L5.27-13.11Q5.27-12.67 5.59-12.36 5.92-12.06 6.39-11.86 6.86-11.66 7.39-11.51 7.92-11.37 8.35-11.26ZM25.24-4.36L26.33 0 22.33 0Q21.1 0 20.01-0.47 18.92-0.94 18.12-1.76 17.32-2.58 16.85-3.67 16.38-4.76 16.38-5.99L16.38-5.99 16.38-21.82 20.73-22.91 20.73-15.98 23.28-15.98 24.37-11.62 20.73-11.62 20.73-5.99Q20.73-5.3 21.21-4.83 21.68-4.36 22.33-4.36L22.33-4.36 25.24-4.36ZM44.88-6.9L40.31-6.9 30.79-6.9Q31.16-6.06 31.85-5.41L31.85-5.41Q32.61-4.65 33.55-4.27 34.5-3.89 35.55-3.89L35.55-3.89Q37.04-3.89 38.2-4.58L38.2-4.58 42.74-2.76Q41.43-1.23 39.58-0.38 37.73 0.47 35.55 0.47L35.55 0.47Q33.55 0.47 31.81-0.27 30.07-1.02 28.76-2.32 27.45-3.63 26.71-5.37 25.96-7.12 25.96-9.08L25.96-9.08Q25.96-11.08 26.71-12.82 27.45-14.56 28.76-15.87 30.07-17.18 31.81-17.92 33.55-18.66 35.55-18.66L35.55-18.66Q37.55-18.66 39.29-17.92 41.03-17.18 42.34-15.87 43.65-14.56 44.39-12.82 45.14-11.08 45.14-9.08L45.14-9.08Q45.14-7.92 44.88-6.9L44.88-6.9ZM35.55-14.31L35.55-14.31Q33.44-14.31 31.85-12.78L31.85-12.78Q31.16-12.09 30.79-11.26L30.79-11.26 40.31-11.26Q39.94-12.09 39.25-12.78L39.25-12.78Q37.73-14.31 35.55-14.31ZM61.4-18.19L65.76-18.19 65.76 0 61.4 0 61.4-9.08Q61.4-11.26 59.88-12.78L59.88-12.78Q58.35-14.31 56.18-14.31L56.18-14.31Q55.12-14.31 54.16-13.91 53.2-13.51 52.47-12.78L52.47-12.78Q50.95-11.26 50.95-9.08L50.95-9.08Q50.95-6.94 52.47-5.41L52.47-5.41Q53.2-4.65 54.16-4.27 55.12-3.89 56.18-3.89L56.18-3.89Q57.26-3.89 58.14-4.25L58.14-4.25 59.7-0.36Q58.03 0.47 55.81 0.47L55.81 0.47Q53.81 0.47 52.13-0.27 50.44-1.02 49.2-2.32 47.97-3.63 47.28-5.37 46.59-7.12 46.59-9.08L46.59-9.08Q46.59-11.08 47.28-12.82 47.97-14.56 49.2-15.87 50.44-17.18 52.13-17.92 53.81-18.66 55.81-18.66L55.81-18.66Q57.59-18.66 58.97-18.12 60.35-17.58 61.4-16.74L61.4-16.74 61.4-18.19ZM82.54-25.45L86.9-25.45 86.9 0 82.54 0 82.54-9.08Q82.54-11.29 81.01-12.78L81.01-12.78Q79.49-14.31 77.35-14.31L77.35-14.31Q75.17-14.31 73.64-12.78L73.64-12.78Q72.12-11.26 72.12-9.08L72.12-9.08Q72.12-6.94 73.64-5.41L73.64-5.41Q74.37-4.65 75.33-4.27 76.29-3.89 77.35-3.89L77.35-3.89Q78.4-3.89 79.27-4.25L79.27-4.25 80.83-0.36Q79.16 0.47 76.98 0.47L76.98 0.47Q74.98 0.47 73.3-0.27 71.61-1.02 70.37-2.32 69.14-3.63 68.45-5.37 67.76-7.12 67.76-9.08L67.76-9.08Q67.76-11.08 68.45-12.82 69.14-14.56 70.37-15.87 71.61-17.18 73.3-17.92 74.98-18.66 76.98-18.66L76.98-18.66Q78.73-18.66 80.1-18.12 81.48-17.58 82.54-16.74L82.54-16.74 82.54-25.45ZM105.2-18.16L109.99-18.16 101.57 0 100.44 2.47Q99.42 4.68 97.39 5.99 95.36 7.3 92.89 7.3L92.89 7.3 90.96 7.3 92.05 2.94 93.1 2.94Q94.16 2.94 95.07 2.36 95.97 1.78 96.41 0.8L96.41 0.8 96.77 0 88.35-18.16 93.14-18.16 99.17-5.16 105.2-18.16Z" transform="translate(-0.9100000262260437, 25.450000762939453)"></path>
                </g>
            </g>
            <g transform="translate(112.07999420166016, 0)">
                <g>
                    <g class="imagesvg">
                        <g>
                            <rect fill="#333" fill-opacity="0" stroke-width="2" x="0" y="0" width="39.28583986303579" height="39.315326357804146" class="image-rect"></rect>
                            <svg x="0" y="0" width="39.28583986303579" height="39.315326357804146" filtersec="colorsb2589539129" class="image-svg-svg primary" style="overflow: visible;">
                                <svg xmlns="http://www.w3.org/2000/svg" viewBox="-0.00005833804243593477 -0.003611281979829073 107.92018127441406 108.00090789794922">
                                    <title>资源 22</title>
                                    <path d="M33.28 91.66c-9.86 0-16.24-5.64-17-12.6-1-9.63 6-15.21 12.12-16.56 17.11-3.76 28.26-14.18 33.4-31 .49-1.62.76-3.3 1.26-4.91A14.54 14.54 0 0 1 77 16.11a14.84 14.84 0 0 1 14.14 10.12c2.86 8.29-2.71 17.25-11.47 19.15C62 49.2 50.81 60 45.9 77.36a34.57 34.57 0 0 1-1.9 6.13c-2.65 5.35-7.09 8.1-10.72 8.17z" fill="#5bebaf"></path>
                                    <path d="M31 15.82a68 68 0 0 0 8.33-.07c3.42-.42 5.61-2.95 6.16-6.38.15-.9.19-1.82.35-2.71A7.75 7.75 0 0 1 53.36 0a8 8 0 0 1 3.72 15.2 6.71 6.71 0 0 1-2.62.66c-7.78.11-9.79 6.41-8.85 12a14.69 14.69 0 0 1-5.56 14.73 14.94 14.94 0 0 1-16.69 1.21A15.1 15.1 0 0 1 16 29.14c.87-6.44 5-11.29 11-12.78 1.31-.33 2.66-.52 4-.78z" fill="#40d7ff"></path>
                                    <path d="M77.17 62.2A14.88 14.88 0 1 1 75 91.8a18.29 18.29 0 0 0-6.56.18c-4.24 1-6.07 3.39-6.37 7.76-.26 3.74-1.84 6.53-5.46 7.78a7.29 7.29 0 0 1-8.07-2 7.28 7.28 0 0 1-1.77-8.25c1.16-2.94 3.26-4.88 6.4-4.94 6.38-.1 9.83-4.11 9.44-10.33-.1-1.69-.22-3.39-.21-5.08A14.63 14.63 0 0 1 77.17 62.2z" fill="#6691ff"></path>
                                    <path d="M107.92 54.18a7.93 7.93 0 1 1-15.86.08 7.93 7.93 0 1 1 15.86-.08z" fill="#40d7ff"></path>
                                    <path d="M15.64 53.81A7.74 7.74 0 0 1 8 61.72a8 8 0 0 1-8-7.92 7.83 7.83 0 0 1 7.77-7.86 7.67 7.67 0 0 1 7.87 7.87z" fill="#5479dc"></path>
                                </svg>
                            </svg>
                            <!---->
                        </g>
                    </g>
                </g>
            </g>
            <g data-gra="path-name-1" fill="#333" transform="translate(154.3658332824707, 3.2832782553741495)">
                <g transform="scale(1)">
                    <path d="M24.76-18.16L24.76-18.16 29.34-18.16 23.2 0 18.59 0 14.74-11.69 10.89 0 6.32 0 0.18-18.16 4.76-18.16 8.61-6.43 12.46-18.16 17.07-18.16 20.92-6.43 24.76-18.16ZM47.68-6.9L43.1-6.9 33.59-6.9Q33.95-6.06 34.64-5.41L34.64-5.41Q35.4-4.65 36.35-4.27 37.29-3.89 38.35-3.89L38.35-3.89Q39.83-3.89 41-4.58L41-4.58 45.54-2.76Q44.23-1.23 42.38-0.38 40.52 0.47 38.35 0.47L38.35 0.47Q36.35 0.47 34.61-0.27 32.86-1.02 31.56-2.32 30.25-3.63 29.5-5.37 28.76-7.12 28.76-9.08L28.76-9.08Q28.76-11.08 29.5-12.82 30.25-14.56 31.56-15.87 32.86-17.18 34.61-17.92 36.35-18.66 38.35-18.66L38.35-18.66Q40.34-18.66 42.09-17.92 43.83-17.18 45.14-15.87 46.44-14.56 47.19-12.82 47.93-11.08 47.93-9.08L47.93-9.08Q47.93-7.92 47.68-6.9L47.68-6.9ZM38.35-14.31L38.35-14.31Q36.24-14.31 34.64-12.78L34.64-12.78Q33.95-12.09 33.59-11.26L33.59-11.26 43.1-11.26Q42.74-12.09 42.05-12.78L42.05-12.78Q40.52-14.31 38.35-14.31ZM59.88-18.63L59.88-18.63Q61.88-18.63 63.56-17.88 65.25-17.14 66.49-15.83 67.72-14.52 68.41-12.78 69.1-11.04 69.1-9.04L69.1-9.04Q69.1-7.08 68.41-5.34 67.72-3.59 66.49-2.29 65.25-0.98 63.56-0.24 61.88 0.51 59.88 0.51L59.88 0.51Q57.74 0.51 55.99-0.33L55.99-0.33 57.55-4.21Q58.43-3.85 59.52-3.85L59.52-3.85Q61.73-3.85 63.22-5.37L63.22-5.37Q64.74-6.9 64.74-9.04L64.74-9.04Q64.74-11.22 63.22-12.75L63.22-12.75Q61.69-14.27 59.52-14.27L59.52-14.27Q57.41-14.27 55.81-12.75L55.81-12.75Q54.29-11.22 54.29-9.04L54.29-9.04 54.29-1.42 54.29 0.04 49.93 0.04 49.93-25.42 54.29-25.42 54.29-16.7Q55.34-17.54 56.72-18.08 58.1-18.63 59.88-18.63Z" transform="translate(-0.18000000715255737, 25.450000762939453)"></path>
                </g>
            </g>
        </g>
        <g data-gra="path-slogan" fill-rule="" class="tp-slogan iconsvg-slogansvg" fill="#333" transform="translate(5,45.31532669067383)">
            <rect x="0" height="1" y="3.580000877380371" width="74.4629135131836"></rect>
            <rect height="1" y="3.580000877380371" width="74.4629135131836" x="138.82291412353516"></rect>
            <g transform="translate(77.4629135131836,0)">
                <g transform="scale(1)">
                    <path d="M1.10-1.72L0.50-1.02C0.85-0.66 1.26-0.38 1.73-0.17C2.20 0.04 2.71 0.14 3.26 0.14C3.68 0.14 4.05 0.09 4.38-0.03C4.71-0.15 4.99-0.31 5.22-0.51C5.45-0.71 5.63-0.95 5.75-1.22C5.88-1.50 5.94-1.79 5.94-2.10C5.94-2.39 5.90-2.64 5.81-2.86C5.73-3.08 5.62-3.27 5.47-3.44C5.33-3.60 5.16-3.75 4.96-3.87C4.76-3.99 4.54-4.10 4.32-4.20L3.20-4.68C3.04-4.74 2.89-4.81 2.74-4.89C2.58-4.97 2.44-5.05 2.32-5.15C2.19-5.25 2.09-5.37 2.01-5.50C1.93-5.63 1.90-5.80 1.90-5.99C1.90-6.35 2.03-6.63 2.30-6.83C2.57-7.04 2.92-7.14 3.36-7.14C3.73-7.14 4.06-7.07 4.35-6.94C4.64-6.81 4.91-6.63 5.15-6.40L5.69-7.04C5.41-7.33 5.07-7.57 4.67-7.75C4.27-7.93 3.83-8.02 3.36-8.02C3-8.02 2.67-7.96 2.37-7.86C2.07-7.76 1.81-7.61 1.59-7.42C1.37-7.23 1.20-7.01 1.07-6.76C0.95-6.50 0.89-6.22 0.89-5.93C0.89-5.64 0.94-5.39 1.03-5.17C1.13-4.95 1.25-4.76 1.40-4.60C1.56-4.44 1.73-4.30 1.92-4.19C2.11-4.08 2.30-3.98 2.48-3.90L3.61-3.41C3.80-3.32 3.97-3.24 4.13-3.16C4.29-3.08 4.43-2.99 4.54-2.89C4.66-2.79 4.75-2.67 4.82-2.53C4.89-2.39 4.92-2.22 4.92-2.02C4.92-1.63 4.78-1.32 4.49-1.09C4.20-0.85 3.80-0.73 3.28-0.73C2.87-0.73 2.47-0.82 2.09-1.00C1.71-1.18 1.38-1.42 1.10-1.72ZM10.39 0.14C10.89 0.14 11.34 0.05 11.75-0.14C12.17-0.34 12.52-0.61 12.82-0.97C13.12-1.32 13.35-1.75 13.52-2.26C13.68-2.77 13.76-3.34 13.76-3.97C13.76-4.60 13.68-5.16 13.52-5.66C13.35-6.16 13.12-6.58 12.82-6.93C12.52-7.28 12.17-7.55 11.75-7.73C11.34-7.92 10.89-8.02 10.39-8.02C9.90-8.02 9.44-7.92 9.03-7.74C8.62-7.56 8.26-7.29 7.97-6.94C7.67-6.59 7.44-6.17 7.28-5.67C7.11-5.17 7.03-4.60 7.03-3.97C7.03-3.34 7.11-2.77 7.28-2.26C7.44-1.75 7.67-1.32 7.97-0.97C8.26-0.61 8.62-0.34 9.03-0.14C9.44 0.05 9.90 0.14 10.39 0.14ZM10.39-0.73C10.04-0.73 9.72-0.81 9.44-0.96C9.15-1.11 8.91-1.33 8.71-1.61C8.50-1.90 8.34-2.24 8.23-2.63C8.12-3.03 8.06-3.48 8.06-3.97C8.06-4.46 8.12-4.90 8.23-5.29C8.34-5.68 8.50-6.02 8.71-6.29C8.91-6.56 9.15-6.77 9.44-6.92C9.72-7.07 10.04-7.14 10.39-7.14C10.74-7.14 11.06-7.07 11.35-6.92C11.63-6.77 11.87-6.56 12.08-6.29C12.28-6.02 12.44-5.68 12.55-5.29C12.66-4.90 12.72-4.46 12.72-3.97C12.72-3.48 12.66-3.03 12.55-2.63C12.44-2.24 12.28-1.90 12.08-1.61C11.87-1.33 11.63-1.11 11.35-0.96C11.06-0.81 10.74-0.73 10.39-0.73ZM15.46-7.87L15.46 0L19.90 0L19.90-0.85L16.45-0.85L16.45-7.87ZM20.90-7.87L20.90-3.25C20.90-2.62 20.98-2.09 21.12-1.66C21.26-1.22 21.46-0.87 21.71-0.61C21.97-0.34 22.27-0.15 22.61-0.03C22.96 0.09 23.34 0.14 23.74 0.14C24.14 0.14 24.51 0.09 24.85-0.03C25.20-0.15 25.49-0.34 25.75-0.61C26.00-0.87 26.20-1.22 26.34-1.66C26.48-2.09 26.56-2.62 26.56-3.25L26.56-7.87L25.60-7.87L25.60-3.23C25.60-2.76 25.55-2.36 25.45-2.04C25.36-1.72 25.22-1.46 25.06-1.27C24.89-1.08 24.69-0.94 24.47-0.86C24.24-0.77 24.00-0.73 23.74-0.73C23.48-0.73 23.24-0.77 23.02-0.86C22.79-0.94 22.60-1.08 22.43-1.27C22.27-1.46 22.14-1.72 22.04-2.04C21.95-2.36 21.90-2.76 21.90-3.23L21.90-7.87ZM30.31-7.03L30.31 0L31.32 0L31.32-7.03L33.70-7.03L33.70-7.87L27.94-7.87L27.94-7.03ZM35.11-7.87L35.11 0L36.11 0L36.11-7.87ZM41.17 0.14C41.67 0.14 42.12 0.05 42.53-0.14C42.95-0.34 43.30-0.61 43.60-0.97C43.90-1.32 44.13-1.75 44.30-2.26C44.46-2.77 44.54-3.34 44.54-3.97C44.54-4.60 44.46-5.16 44.30-5.66C44.13-6.16 43.90-6.58 43.60-6.93C43.30-7.28 42.95-7.55 42.53-7.73C42.12-7.92 41.67-8.02 41.17-8.02C40.68-8.02 40.22-7.92 39.81-7.74C39.40-7.56 39.04-7.29 38.75-6.94C38.45-6.59 38.22-6.17 38.06-5.67C37.89-5.17 37.81-4.60 37.81-3.97C37.81-3.34 37.89-2.77 38.06-2.26C38.22-1.75 38.45-1.32 38.75-0.97C39.04-0.61 39.40-0.34 39.81-0.14C40.22 0.05 40.68 0.14 41.17 0.14ZM41.17-0.73C40.82-0.73 40.50-0.81 40.22-0.96C39.93-1.11 39.69-1.33 39.49-1.61C39.28-1.90 39.12-2.24 39.01-2.63C38.90-3.03 38.84-3.48 38.84-3.97C38.84-4.46 38.90-4.90 39.01-5.29C39.12-5.68 39.28-6.02 39.49-6.29C39.69-6.56 39.93-6.77 40.22-6.92C40.50-7.07 40.82-7.14 41.17-7.14C41.52-7.14 41.84-7.07 42.13-6.92C42.41-6.77 42.65-6.56 42.86-6.29C43.06-6.02 43.22-5.68 43.33-5.29C43.44-4.90 43.50-4.46 43.50-3.97C43.50-3.48 43.44-3.03 43.33-2.63C43.22-2.24 43.06-1.90 42.86-1.61C42.65-1.33 42.41-1.11 42.13-0.96C41.84-0.81 41.52-0.73 41.17-0.73ZM46.24-7.87L46.24 0L47.18 0L47.18-4.12C47.18-4.53 47.17-4.95 47.14-5.36C47.11-5.77 47.08-6.18 47.05-6.58L47.10-6.58L47.95-4.96L50.81 0L51.84 0L51.84-7.87L50.89-7.87L50.89-3.80C50.89-3.39 50.91-2.97 50.93-2.54C50.96-2.11 50.99-1.70 51.01-1.30L50.96-1.30L50.11-2.93L47.27-7.87ZM54.02-1.72L53.42-1.02C53.77-0.66 54.18-0.38 54.65-0.17C55.12 0.04 55.63 0.14 56.18 0.14C56.60 0.14 56.97 0.09 57.30-0.03C57.63-0.15 57.91-0.31 58.14-0.51C58.37-0.71 58.55-0.95 58.67-1.22C58.80-1.50 58.86-1.79 58.86-2.10C58.86-2.39 58.82-2.64 58.73-2.86C58.65-3.08 58.54-3.27 58.39-3.44C58.25-3.60 58.08-3.75 57.88-3.87C57.68-3.99 57.46-4.10 57.24-4.20L56.12-4.68C55.96-4.74 55.81-4.81 55.66-4.89C55.50-4.97 55.36-5.05 55.24-5.15C55.11-5.25 55.01-5.37 54.93-5.50C54.85-5.63 54.82-5.80 54.82-5.99C54.82-6.35 54.95-6.63 55.22-6.83C55.49-7.04 55.84-7.14 56.28-7.14C56.65-7.14 56.98-7.07 57.27-6.94C57.56-6.81 57.83-6.63 58.07-6.40L58.61-7.04C58.33-7.33 57.99-7.57 57.59-7.75C57.19-7.93 56.75-8.02 56.28-8.02C55.92-8.02 55.59-7.96 55.29-7.86C54.99-7.76 54.73-7.61 54.51-7.42C54.29-7.23 54.12-7.01 53.99-6.76C53.87-6.50 53.81-6.22 53.81-5.93C53.81-5.64 53.86-5.39 53.95-5.17C54.05-4.95 54.17-4.76 54.32-4.60C54.48-4.44 54.65-4.30 54.84-4.19C55.03-4.08 55.22-3.98 55.40-3.90L56.53-3.41C56.72-3.32 56.89-3.24 57.05-3.16C57.21-3.08 57.35-2.99 57.46-2.89C57.58-2.79 57.67-2.67 57.74-2.53C57.81-2.39 57.84-2.22 57.84-2.02C57.84-1.63 57.70-1.32 57.41-1.09C57.12-0.85 56.72-0.73 56.20-0.73C55.79-0.73 55.39-0.82 55.01-1.00C54.63-1.18 54.30-1.42 54.02-1.72Z" transform="translate(-0.504, 8.016)"></path>
                </g>
            </g>
        </g>
    </g>
    <defs v-gra="od"></defs>
</svg>