<?xml version="1.0" encoding="UTF-8"?>
<svg xmlns="http://www.w3.org/2000/svg" viewBox="0 0 108 108" width="108" height="108">
    <path d="M33.28 91.66c-9.86 0-16.24-5.64-17-12.6-1-9.63 6-15.21 12.12-16.56 17.11-3.76 28.26-14.18 33.4-31 .49-1.62.76-3.3 1.26-4.91A14.54 14.54 0 0 1 77 16.11a14.84 14.84 0 0 1 14.14 10.12c2.86 8.29-2.71 17.25-11.47 19.15C62 49.2 50.81 60 45.9 77.36a34.57 34.57 0 0 1-1.9 6.13c-2.65 5.35-7.09 8.1-10.72 8.17z" fill="#5bebaf"/>
    <path d="M31 15.82a68 68 0 0 0 8.33-.07c3.42-.42 5.61-2.95 6.16-6.38.15-.9.19-1.82.35-2.71A7.75 7.75 0 0 1 53.36 0a8 8 0 0 1 3.72 15.2 6.71 6.71 0 0 1-2.62.66c-7.78.11-9.79 6.41-8.85 12a14.69 14.69 0 0 1-5.56 14.73 14.94 14.94 0 0 1-16.69 1.21A15.1 15.1 0 0 1 16 29.14c.87-6.44 5-11.29 11-12.78 1.31-.33 2.66-.52 4-.78z" fill="#40d7ff"/>
    <path d="M77.17 62.2A14.88 14.88 0 1 1 75 91.8a18.29 18.29 0 0 0-6.56.18c-4.24 1-6.07 3.39-6.37 7.76-.26 3.74-1.84 6.53-5.46 7.78a7.29 7.29 0 0 1-8.07-2 7.28 7.28 0 0 1-1.77-8.25c1.16-2.94 3.26-4.88 6.4-4.94 6.38-.1 9.83-4.11 9.44-10.33-.1-1.69-.22-3.39-.21-5.08A14.63 14.63 0 0 1 77.17 62.2z" fill="#6691ff"/>
    <path d="M107.92 54.18a7.93 7.93 0 1 1-15.86.08 7.93 7.93 0 1 1 15.86-.08z" fill="#40d7ff"/>
    <path d="M15.64 53.81A7.74 7.74 0 0 1 8 61.72a8 8 0 0 1-8-7.92 7.83 7.83 0 0 1 7.77-7.86 7.67 7.67 0 0 1 7.87 7.87z" fill="#5479dc"/>
</svg>